<?xml version="1.0" encoding="UTF-8"?>
<svg version="1.1" xmlns="http://www.w3.org/2000/svg" width="640" height="640">
<path d="M0 0 C211.2 0 422.4 0 640 0 C640 211.2 640 422.4 640 640 C428.8 640 217.6 640 0 640 C0 428.8 0 217.6 0 0 Z " fill="#E4E4E3" transform="translate(0,0)"/>
<path d="M0 0 C0.87368225 0.00248749 1.7473645 0.00497498 2.64752197 0.00753784 C63.04668925 0.27260954 117.41218435 24.74292411 159.84643555 67.42211914 C167.06357664 74.87454172 173.31685836 82.86247764 179.3125 91.3125 C179.73901855 91.89435059 180.16553711 92.47620117 180.60498047 93.07568359 C203.57719864 124.44107282 215.99143957 161.97744605 220.3125 200.3125 C220.40748779 201.11228271 220.50247559 201.91206543 220.6003418 202.73608398 C225.01275859 242.43214653 216.91574411 283.2562618 200.3125 319.3125 C200.00231934 319.99328613 199.69213867 320.67407227 199.37255859 321.37548828 C189.20055216 343.44621404 175.08559546 362.82653507 158.3125 380.3125 C157.72871582 380.92883301 157.14493164 381.54516602 156.54345703 382.18017578 C133.38474047 406.52775049 105.53802396 423.29760494 74.3125 435.3125 C73.61954834 435.6204248 72.92659668 435.92834961 72.21264648 436.24560547 C65.1167461 439.32329173 57.82453162 440.95207567 50.28295898 442.49511719 C48.14384648 442.93363646 46.00844329 443.38751704 43.87304688 443.84375 C-11.73141203 455.56482631 -70.27216104 444.59307524 -118.07275391 413.7746582 C-131.90931839 404.64240866 -143.97973638 394.02026362 -155.6875 382.3125 C-156.54085937 381.51714844 -157.39421875 380.72179687 -158.2734375 379.90234375 C-176.21663288 362.83871678 -189.2712287 341.61212306 -199.6875 319.3125 C-200.05907227 318.52101563 -200.43064453 317.72953125 -200.81347656 316.9140625 C-211.21350006 294.48983048 -215.96664593 271.66718118 -219.6875 247.3125 C-219.80311279 246.60544922 -219.91872559 245.89839844 -220.0378418 245.16992188 C-227.6450713 193.94114792 -210.41835027 135.79015475 -180.6875 94.3125 C-180.29079102 93.75578613 -179.89408203 93.19907227 -179.48535156 92.62548828 C-176.96794257 89.12158415 -174.34912627 85.70753059 -171.6875 82.3125 C-171.06359375 81.48363281 -170.4396875 80.65476562 -169.796875 79.80078125 C-157.63209928 64.16377625 -142.85356341 50.68117273 -126.6875 39.3125 C-126.0486084 38.85552734 -125.4097168 38.39855469 -124.75146484 37.92773438 C-115.52848889 31.36262865 -105.95251556 26.0631142 -95.6875 21.3125 C-94.95063965 20.96944824 -94.2137793 20.62639648 -93.45458984 20.27294922 C-79.55722575 13.84211685 -65.85267074 8.6730549 -50.9375 5.125 C-49.90302734 4.87476074 -48.86855469 4.62452148 -47.80273438 4.36669922 C-31.99154743 0.75571319 -16.16679508 -0.07410636 0 0 Z " fill="#362A4F" transform="translate(319.6875,101.6875)"/>
<path d="M0 0 C4.5748056 2.05781218 8.17827866 5.28495653 10 10 C10.74825803 15.68043773 10.29390401 20.16894079 7 25 C4.42612148 27.7957646 2.26538492 29.9376477 -1.6953125 30.1328125 C-2.45585937 30.08898437 -3.21640625 30.04515625 -4 30 C-4.07347656 31.09054688 -4.07347656 31.09054688 -4.1484375 32.203125 C-4.53065516 37.34329353 -5.0243706 42.3242428 -6.0625 47.375 C-9.53424018 67.57421557 -7.03674001 90.00605248 -0.76953125 109.41796875 C0 112 0 112 0 115 C0.99580078 115.02126953 0.99580078 115.02126953 2.01171875 115.04296875 C9.26181231 115.43457964 9.26181231 115.43457964 12.9375 118.25 C13.618125 119.1575 14.29875 120.065 15 121 C15.61875 121.721875 16.2375 122.44375 16.875 123.1875 C18.59880867 127.49702168 17.93141205 131.51801722 17 136 C16.61118652 136.77432373 16.22237305 137.54864746 15.82177734 138.34643555 C14.72486002 140.96934078 14.72486002 140.96934078 15.82348633 143.42504883 C16.32130615 144.26060303 16.81912598 145.09615723 17.33203125 145.95703125 C17.87843262 146.89587158 18.42483398 147.83471191 18.98779297 148.80200195 C19.58994629 149.79546631 20.19209961 150.78893066 20.8125 151.8125 C22.04056142 153.90613456 23.26842564 155.99988479 24.49609375 158.09375 C25.10179199 159.11210937 25.70749023 160.13046875 26.33154297 161.1796875 C28.40854234 164.69058839 30.39900632 168.24419604 32.375 171.8125 C35.16135074 176.80190202 38.01215467 181.75238174 40.88671875 186.69140625 C41.58091682 187.88629739 42.27508986 189.08120307 42.96923828 190.27612305 C44.34943739 192.65157843 45.73545915 195.02351221 47.12451172 197.39379883 C47.75502441 198.47814209 48.38553711 199.56248535 49.03515625 200.6796875 C49.6062915 201.65663574 50.17742676 202.63358398 50.76586914 203.64013672 C52 206 52 206 52 208 C52.99 207.67 53.98 207.34 55 207 C59.63522786 206.46143067 63.07906346 206.54821981 67.3125 208.625 C70.95342677 211.84256319 73.5913541 214.43970836 74.3828125 219.3984375 C74.63883919 225.08222994 73.93626932 228.64938655 70 233 C65.79297841 236.71783304 62.56020078 237.59965029 57.10546875 237.31640625 C52.56295051 236.63376436 50.38726464 234.39606611 47.25 231.1875 C44.94156312 227.91721441 44.28150998 225.94113971 44 222 C43.33645508 221.96189209 42.67291016 221.92378418 41.98925781 221.88452148 C34.94834574 221.37675154 28.50648401 220.07610409 21.75 218.0625 C20.20505859 217.60496338 20.20505859 217.60496338 18.62890625 217.13818359 C-2.34416076 210.69107301 -23.05100559 201.33396583 -40.04296875 187.27758789 C-41.9599471 185.69868532 -41.9599471 185.69868532 -45 184 C-47.76568732 184.49451726 -47.76568732 184.49451726 -50 186 C-53.71844152 187.23948051 -57.13691494 187.55605012 -61 187 C-64.3125 185.0625 -64.3125 185.0625 -67 183 C-69.9036581 181.64505296 -69.9036581 181.64505296 -72.15625 183.0390625 C-78.24656912 186.98438189 -78.24656912 186.98438189 -82 193 C-82.8621882 197.84980865 -81.46700806 201.0625422 -78.77734375 205.00390625 C-75.21712535 209.00230537 -70.61308585 211.38075079 -66 214 C-39.68789002 229.03729207 -39.68789002 229.03729207 -36 241 C-35.37354504 246.82121224 -37.19570377 251.43525537 -40.5078125 256.16015625 C-54.99872364 274.02722208 -83.34643276 275.17856012 -104.44284058 278.38021851 C-116.7920847 280.2546884 -128.92532012 282.53264985 -141.0546875 285.54541016 C-143.68392921 286.15982382 -146.33032079 286.60211512 -149 287 C-149.061875 287.86625 -149.12375 288.7325 -149.1875 289.625 C-150.30888725 294.28307013 -152.72112405 297.59203205 -156.83984375 300.13671875 C-161.14960279 301.85906368 -165.474134 301.83026231 -170 301 C-174.54446231 298.32893922 -177.99816682 294.91712421 -180 290 C-180.48578712 284.75349908 -179.8850004 281.42366728 -177 277 C-173.3449273 273.38391474 -170.46543251 271.0976955 -165.25 270.75 C-161.16176096 270.81665607 -158.46280894 271.7176941 -155 274 C-151 278.31578947 -151 278.31578947 -151 281 C-149.865625 280.5875 -148.73125 280.175 -147.5625 279.75 C-136.41089653 276.08395299 -124.91973675 273.95943887 -113.38964844 271.8840332 C-82.12105135 267.49992579 -82.12105135 267.49992579 -57.0234375 250.515625 C-54.16547356 246.28322039 -54.2782247 241.95035789 -55 237 C-58.80875088 228.19935434 -68.6961944 222.77371886 -76.45703125 217.74609375 C-84.06280911 212.77553292 -88.9300989 208.1398022 -93 200 C-93.46446972 195.26240882 -93.05040678 191.84266174 -90.4609375 187.765625 C-85.81805082 182.15443575 -79.77664314 178.45112624 -73 176 C-72.96261719 175.40832031 -72.92523438 174.81664062 -72.88671875 174.20703125 C-72.33292106 167.55060022 -72.33292106 167.55060022 -70.375 164.3125 C-68.48013865 161.12568774 -69.13118551 159.54985316 -70 156 C-75.6191007 145.33039807 -84.11554205 137.88713724 -95.42578125 133.8984375 C-101.5743458 132.35289668 -107.67160269 132.09628267 -114 132 C-114.24621094 132.86625 -114.49242187 133.7325 -114.74609375 134.625 C-116.09533921 138.25661395 -117.79540234 140.86524768 -120.0625 144 C-120.88428431 145.16302392 -121.70455439 146.32711903 -122.5234375 147.4921875 C-122.93948242 148.0809668 -123.35552734 148.66974609 -123.78417969 149.27636719 C-131.30082121 159.9324895 -137.34012443 171.14524011 -143.21557617 182.75830078 C-143.79154541 183.89251465 -144.36751465 185.02672852 -144.9609375 186.1953125 C-145.47446777 187.21641113 -145.98799805 188.23750977 -146.51708984 189.28955078 C-147.85685443 191.73835988 -149.16057774 193.90146893 -151 196 C-151.66 196 -152.32 196 -153 196 C-153.36649658 195.21052979 -153.73299316 194.42105957 -154.1105957 193.60766602 C-160.85975583 179.14608238 -167.58934023 165.07915712 -176.68554688 151.91503906 C-186.81721015 137.15412399 -192.90708906 125.31974935 -191 107 C-188.77690078 96.08299489 -182.16363581 88.00485391 -173.33984375 81.50390625 C-163.89449076 75.43301994 -154.10777293 73.71540915 -143 75 C-135.66792025 76.88382859 -129.37777591 79.62222409 -124 85 C-120.32043709 83.43767979 -117.83484207 81.16415918 -114.9375 78.4375 C-109.48129754 73.379012 -103.8276512 68.62877473 -98 64 C-96.99195313 63.19691406 -95.98390625 62.39382812 -94.9453125 61.56640625 C-73.76192506 44.87487842 -49.30912417 28.82218703 -23.93359375 19.4921875 C-20.84569488 18.32060547 -20.84569488 18.32060547 -20.0546875 15.73046875 C-19.96574219 14.47169922 -19.96574219 14.47169922 -19.875 13.1875 C-19.16520752 7.90263207 -17.85702885 5.67336081 -14 2 C-9.52577982 -0.71079588 -5.09142904 -0.76763084 0 0 Z " fill="#F9F9F8" transform="translate(380,177)"/>
<path d="M0 0 C1.69270833 1.49739583 3.38541667 2.99479167 5.078125 4.4921875 C6.97418746 5.9797487 8.81290005 7.00322436 11 8 C10.7834375 9.06089844 10.566875 10.12179688 10.34375 11.21484375 C5.51145593 37.2170517 6.85201526 63.09859409 13.69165039 88.57641602 C13.8952417 89.37748779 14.09883301 90.17855957 14.30859375 91.00390625 C14.49736084 91.70588135 14.68612793 92.40785645 14.88061523 93.13110352 C15 95 15 95 12.6875 97.9375 C11.800625 98.618125 10.91375 99.29875 10 100 C8.64880851 102.70238298 8.86762872 104.86014446 8.875 107.875 C8.87242187 108.92429687 8.86984375 109.97359375 8.8671875 111.0546875 C8.98001336 113.55676685 9.27491238 115.61756923 10 118 C-15.14285714 142 -15.14285714 142 -24 142 C-25.66666667 140.33333333 -27.33333333 138.66666667 -29 137 C-32.08254105 135.05513905 -33.76745931 134.94589062 -37.3125 135.5 C-39.69921875 135.55859375 -39.69921875 135.55859375 -42 135 C-44.93493035 132.05296684 -46.88211889 128.55963116 -49 125 C-56.23385115 114.06100558 -66.21911533 107.88600622 -79 105 C-83.33272293 104.45261102 -87.63603255 104.14077314 -92 104 C-91.97905273 103.44650879 -91.95810547 102.89301758 -91.93652344 102.32275391 C-91.17081978 87.61032329 -91.17081978 87.61032329 -96 74 C-96.45503906 73.21882813 -96.91007812 72.43765625 -97.37890625 71.6328125 C-98.54097415 69.7192078 -99.73938499 67.84959088 -101 66 C-100.31035156 65.443125 -99.62070312 64.88625 -98.91015625 64.3125 C-94.47753077 60.71289193 -90.07910722 57.11546597 -85.875 53.25 C-81.61007769 49.41541219 -77.11419681 45.92107324 -72.5625 42.4375 C-71.87075684 41.90737305 -71.17901367 41.37724609 -70.46630859 40.83105469 C-54.81202762 28.94478661 -38.22465397 18.54882439 -20.8125 9.4375 C-19.88155518 8.94934814 -18.95061035 8.46119629 -17.99145508 7.95825195 C-12.12088745 4.93950909 -6.17361257 2.33584882 0 0 Z " fill="#362B4F" transform="translate(360,199)"/>
<path d="M0 0 C2.28213325 1.54085639 4.04565301 3.04565301 6 5 C9.36591866 3.55746343 11.51047079 1.66735273 14 -1 C14.99 -0.505 14.99 -0.505 16 0 C15.55527344 0.38671875 15.11054688 0.7734375 14.65234375 1.171875 C14.08644531 1.69265625 13.52054687 2.2134375 12.9375 2.75 C12.36902344 3.26046875 11.80054688 3.7709375 11.21484375 4.296875 C9.79147833 5.91040245 9.79147833 5.91040245 10.1328125 7.8984375 C11.53736817 11.3022706 13.55233028 14.27122044 15.52734375 17.3671875 C18.88226175 23.36510456 19.29032555 28.53927984 19.1875 35.25 C19.1865332 36.47203125 19.1865332 36.47203125 19.18554688 37.71875 C19.14084821 43.71830357 19.14084821 43.71830357 18 46 C18.79921875 45.95359375 19.5984375 45.9071875 20.421875 45.859375 C34.06494635 45.41101115 45.85802185 49.47942527 55.99609375 58.84375 C68 71.8903118 68 71.8903118 68 78 C67.195625 78.12375 66.39125 78.2475 65.5625 78.375 C64.2940625 78.684375 64.2940625 78.684375 63 79 C62.67 79.66 62.34 80.32 62 81 C61.74347656 80.39414062 61.48695313 79.78828125 61.22265625 79.1640625 C55.92902019 67.57866372 47.8348067 58.94220881 35.9375 54.25 C29.5232671 52.25119855 22.66614622 52.25470124 16 52 C15.75378906 52.86625 15.50757813 53.7325 15.25390625 54.625 C13.90466079 58.25661395 12.20459766 60.86524768 9.9375 64 C9.11571569 65.16302392 8.29544561 66.32711903 7.4765625 67.4921875 C7.06051758 68.0809668 6.64447266 68.66974609 6.21582031 69.27636719 C-1.30082121 79.9324895 -7.34012443 91.14524011 -13.21557617 102.75830078 C-13.79154541 103.89251465 -14.36751465 105.02672852 -14.9609375 106.1953125 C-15.47446777 107.21641113 -15.98799805 108.23750977 -16.51708984 109.28955078 C-17.85685443 111.73835988 -19.16057774 113.90146893 -21 116 C-21.66 116 -22.32 116 -23 116 C-23.36649658 115.21052979 -23.73299316 114.42105957 -24.1105957 113.60766602 C-30.85975583 99.14608238 -37.58934023 85.07915712 -46.68554688 71.91503906 C-56.81721015 57.15412399 -62.90708906 45.31974935 -61 27 C-58.77690078 16.08299489 -52.16363581 8.00485391 -43.33984375 1.50390625 C-29.72094868 -7.24947372 -14.25929131 -7.45188953 0 0 Z " fill="#FBF1DB" transform="translate(250,257)"/>
<path d="M0 0 C0.7321875 0.16242188 1.464375 0.32484375 2.21875 0.4921875 C4.72424378 0.94965125 6.96115011 1.13393961 9.5 1.125 C10.2321875 1.12757813 10.964375 1.13015625 11.71875 1.1328125 C14.21799631 0.98730843 16.55197418 0.51059694 19 0 C20.73022579 3.02022779 22.45911152 6.0412204 24.1875 9.0625 C24.72705322 10.00552979 25.26660645 10.94855957 25.82250977 11.92016602 C29.18197354 17.79862209 32.51793788 23.68963932 35.83642578 29.59130859 C42.72110972 41.83004683 49.81007083 53.93833486 57 66 C55.35 68.64 53.7 71.28 52 74 C20.03358235 68.67809914 -11.24017784 56.30773157 -36 35 C-36.10520248 31.26531199 -35.67819718 28.3613448 -34 25 C-31.35894778 23.2306797 -28.71773994 21.94774423 -25.80786133 20.68310547 C-15.52920681 16.18057247 -6.83238875 8.89452789 0 0 Z " fill="#372B4F" transform="translate(373,320)"/>
<path d="M0 0 C0.495 1.485 0.495 1.485 1 3 C1.66 3 2.32 3 3 3 C3 3.99 3 4.98 3 6 C1.13671875 7.4296875 1.13671875 7.4296875 -1.3125 8.875 C-4.93898606 11.19002097 -7.43903116 12.83741644 -9 17 C-9.8621882 21.84980865 -8.46700806 25.0625422 -5.77734375 29.00390625 C-2.21712535 33.00230537 2.38691415 35.38075079 7 38 C33.31210998 53.03729207 33.31210998 53.03729207 37 65 C37.62645496 70.82121224 35.80429623 75.43525537 32.4921875 80.16015625 C18.00127636 98.02722208 -10.34643276 99.17856012 -31.44284058 102.38021851 C-43.7920847 104.2546884 -55.92532012 106.53264985 -68.0546875 109.54541016 C-70.68392921 110.15982382 -73.33032079 110.60211512 -76 111 C-76.061875 111.86625 -76.12375 112.7325 -76.1875 113.625 C-77.30888725 118.28307013 -79.72112405 121.59203205 -83.83984375 124.13671875 C-88.14960279 125.85906368 -92.474134 125.83026231 -97 125 C-101.54446231 122.32893922 -104.99816682 118.91712421 -107 114 C-107.48578712 108.75349908 -106.8850004 105.42366728 -104 101 C-100.3449273 97.38391474 -97.46543251 95.0976955 -92.25 94.75 C-88.16176096 94.81665607 -85.46280894 95.7176941 -82 98 C-78 102.31578947 -78 102.31578947 -78 105 C-76.865625 104.5875 -75.73125 104.175 -74.5625 103.75 C-63.41089653 100.08395299 -51.91973675 97.95943887 -40.38964844 95.8840332 C-9.12105135 91.49992579 -9.12105135 91.49992579 15.9765625 74.515625 C18.83452644 70.28322039 18.7217753 65.95035789 18 61 C14.19124912 52.19935434 4.3038056 46.77371886 -3.45703125 41.74609375 C-11.06280911 36.77553292 -15.9300989 32.1398022 -20 24 C-20.46446972 19.26240882 -20.05040678 15.84266174 -17.4609375 11.765625 C-12.81805082 6.15443575 -6.77664314 2.45112624 0 0 Z " fill="#F6EDDA" transform="translate(307,353)"/>
<path d="M0 0 C4.5748056 2.05781218 8.17827866 5.28495653 10 10 C10.74825803 15.68043773 10.29390401 20.16894079 7 25 C2.85828777 29.54578171 -0.45990689 30.87143051 -6.60546875 31.203125 C-10.26937371 30.89232066 -12.25517582 29.36182546 -15 27 C-16.66357303 25.66280879 -18.32979097 24.32889328 -20 23 C-56.43469486 38.6392199 -88.77599168 60.19051089 -118 87 C-118.99 86.67 -119.98 86.34 -121 86 C-113.83071689 77.90484089 -106.60891625 70.60214819 -98 64 C-96.99324219 63.20078125 -95.98648437 62.4015625 -94.94921875 61.578125 C-73.79699275 44.8606221 -49.29712415 28.8177749 -23.93359375 19.4921875 C-20.84569488 18.32060547 -20.84569488 18.32060547 -20.0546875 15.73046875 C-19.96574219 14.47169922 -19.96574219 14.47169922 -19.875 13.1875 C-19.16520752 7.90263207 -17.85702885 5.67336081 -14 2 C-9.52577982 -0.71079588 -5.09142904 -0.76763084 0 0 Z " fill="#FAFAFA" transform="translate(380,177)"/>
<path d="M0 0 C4.50796003 2.32861512 7.94192795 5.68939956 9.89453125 10.3515625 C10.91664421 15.91916966 10.63027195 20.80614884 7.83203125 25.7890625 C4.50592394 30.31368333 1.07313761 32.80621337 -4.49609375 33.76171875 C-9.99677684 34.09074734 -13.9372986 33.13723676 -18.41015625 29.88671875 C-22.08203547 26.56172213 -23.79055752 23.60514601 -24.48046875 18.66796875 C-24.73836589 12.72827525 -24.22598869 8.91754405 -20.10546875 4.3515625 C-14.08007571 -0.95652184 -7.90687325 -2.43514093 0 0 Z " fill="#372C4E" transform="translate(236.10546875,277.6484375)"/>
<path d="M0 0 C4.68215227 1.71078641 7.23830963 3.85746444 10 8 C10 8.66 10 9.32 10 10 C12.64 9.67 15.28 9.34 18 9 C18 9.66 18 10.32 18 11 C18.66 11.66 19.32 12.32 20 13 C19.01 13 18.02 13 17 13 C17 13.66 17 14.32 17 15 C15.35 15.33 13.7 15.66 12 16 C11.9071875 17.299375 11.9071875 17.299375 11.8125 18.625 C10.69111275 23.28307013 8.27887595 26.59203205 4.16015625 29.13671875 C-0.14960279 30.85906368 -4.474134 30.83026231 -9 30 C-13.54446231 27.32893922 -16.99816682 23.91712421 -19 19 C-19.48578712 13.75349908 -18.8850004 10.42366728 -16 6 C-10.98152816 1.03505853 -7.08485863 -0.72699109 0 0 Z " fill="#FAFAF9" transform="translate(219,448)"/>
<path d="M0 0 C0.66 0 1.32 0 2 0 C2 0.66 2 1.32 2 2 C2.99 1.67 3.98 1.34 5 1 C9.63522786 0.46143067 13.07906346 0.54821981 17.3125 2.625 C20.95342677 5.84256319 23.5913541 8.43970836 24.3828125 13.3984375 C24.63883919 19.08222994 23.93626932 22.64938655 20 27 C15.79297841 30.71783304 12.56020078 31.59965029 7.10546875 31.31640625 C2.56295051 30.63376436 0.38726464 28.39606611 -2.75 25.1875 C-5.05843688 21.91721441 -5.71849002 19.94113971 -6 16 C-6.99 15.67 -7.98 15.34 -9 15 C-8.01 15 -7.02 15 -6 15 C-6.37125 14.13375 -6.37125 14.13375 -6.75 13.25 C-6.8325 12.5075 -6.915 11.765 -7 11 C-5.1875 9 -5.1875 9 -3 7 C-1.6594463 4.67166989 -0.85417269 2.56251806 0 0 Z " fill="#FBFBFB" transform="translate(430,383)"/>
<path d="M0 0 C4.48374447 0.27174209 6.5782621 2.28140714 9.81640625 5.19921875 C31.30753705 22.92267366 61.90975877 33.38372571 89 38 C89 39.65 89 41.3 89 43 C83.12389083 44.60789057 78.40235379 43.22872584 72.6875 41.6875 C71.68783203 41.42114746 70.68816406 41.15479492 69.65820312 40.88037109 C43.39338679 33.5642095 20.50401485 21.56653712 -1 5 C-0.67 3.35 -0.34 1.7 0 0 Z " fill="#F2ECDC" transform="translate(335,355)"/>
<path d="M0 0 C0.99 0.33 1.98 0.66 3 1 C2.58747407 6.5148203 2.05001655 11.89194062 0.9375 17.3125 C-2.50928772 37.54932185 -0.04836582 59.97004296 6.23046875 79.41796875 C7 82 7 82 7 85 C5.02 85.495 5.02 85.495 3 86 C3 85.34 3 84.68 3 84 C2.34 84 1.68 84 1 84 C0.20115732 81.08513893 -0.58911818 78.1683589 -1.375 75.25 C-1.59671875 74.44433594 -1.8184375 73.63867188 -2.046875 72.80859375 C-5.08442502 61.46245102 -6.33066713 50.53873116 -6.26074219 38.81958008 C-6.25006494 36.7003891 -6.26067884 34.58205537 -6.2734375 32.46289062 C-6.30071558 7.69475406 -6.30071558 7.69475406 -2 1 C-1.34 0.67 -0.68 0.34 0 0 Z " fill="#F4EFE0" transform="translate(373,207)"/>
<path d="M0 0 C1.17175781 0.63808594 1.17175781 0.63808594 2.3671875 1.2890625 C-0.17501163 2.98386192 -2.49076395 4.20939737 -5.25390625 5.46875 C-23.41060953 13.86602774 -40.44582011 23.51081036 -56.6328125 35.2890625 C-57.58800781 35.98128906 -58.54320312 36.67351562 -59.52734375 37.38671875 C-71.33703827 46.09775179 -82.82864471 55.35523045 -93.6328125 65.2890625 C-94.6228125 64.9590625 -95.6128125 64.6290625 -96.6328125 64.2890625 C-89.46352939 56.19390339 -82.24172875 48.89121069 -73.6328125 42.2890625 C-72.62605469 41.48984375 -71.61929687 40.690625 -70.58203125 39.8671875 C-52.97935664 25.95504588 -33.64228697 14.25199829 -13.7578125 3.9140625 C-12.83669678 3.41914307 -11.91558105 2.92422363 -10.96655273 2.41430664 C-4.47138859 -0.87504594 -4.47138859 -0.87504594 0 0 Z " fill="#F1F1F0" transform="translate(355.6328125,198.7109375)"/>
<path d="M0 0 C6.92750351 5.87550782 12.76132643 13.93446586 15.8125 22.5 C15.008125 22.62375 14.20375 22.7475 13.375 22.875 C12.529375 23.08125 11.68375 23.2875 10.8125 23.5 C10.3175 24.49 10.3175 24.49 9.8125 25.5 C9.55597656 24.89414062 9.29945313 24.28828125 9.03515625 23.6640625 C3.72665116 12.04612207 -4.39387042 3.35476929 -16.375 -1.25 C-22.16249966 -3.04717095 -28.16816643 -3.23019989 -34.1875 -3.5 C-34.1875 -4.49 -34.1875 -5.48 -34.1875 -6.5 C-33.5275 -6.5 -32.8675 -6.5 -32.1875 -6.5 C-32.1875 -7.16 -32.1875 -7.82 -32.1875 -8.5 C-20.24723652 -10.7387994 -9.73159339 -7.15869934 0 0 Z " fill="#F1ECDD" transform="translate(302.1875,312.5)"/>
<path d="M0 0 C0.556875 0.2475 1.11375 0.495 1.6875 0.75 C1.54449451 5.46918117 -0.70066407 7.71662376 -3.9609375 10.7890625 C-23.10134462 26.75 -23.10134462 26.75 -30.3125 26.75 C-30.6425 24.77 -30.9725 22.79 -31.3125 20.75 C-30.09626953 20.16605469 -30.09626953 20.16605469 -28.85546875 19.5703125 C-21.45058867 15.82908089 -15.74255974 11.882756 -9.75 6.08203125 C-3.04843655 -0.32956071 -3.04843655 -0.32956071 0 0 Z " fill="#EFEBDD" transform="translate(370.3125,318.25)"/>
<path d="M0 0 C3.82118975 4.372152 6.40623417 9.16086632 9.125 14.25 C11.97982652 19.55467851 14.8490628 24.82427032 18.01171875 29.953125 C18.48270996 30.72108398 18.95370117 31.48904297 19.43896484 32.28027344 C20.33882308 33.73450576 21.25151653 35.18089156 22.17822266 36.61816406 C23.39453125 38.59375 23.39453125 38.59375 25 42 C24.26171875 44.46875 24.26171875 44.46875 23 46 C19.17881025 41.627848 16.59376583 36.83913368 13.875 31.75 C11.02017348 26.44532149 8.1509372 21.17572968 4.98828125 16.046875 C4.51729004 15.27891602 4.04629883 14.51095703 3.56103516 13.71972656 C2.66117692 12.26549424 1.74848347 10.81910844 0.82177734 9.38183594 C-0.39453125 7.40625 -0.39453125 7.40625 -2 4 C-1.26171875 1.53125 -1.26171875 1.53125 0 0 Z " fill="#EFEFEC" transform="translate(406,339)"/>
<path d="M0 0 C-1.375 1.5 -1.375 1.5 -3 3 C-3.66 3 -4.32 3 -5 3 C-5 3.66 -5 4.32 -5 5 C-10.94 4.34 -16.88 3.68 -23 3 C-23 2.01 -23 1.02 -23 0 C-22.34 0 -21.68 0 -21 0 C-21 -0.66 -21 -1.32 -21 -2 C-13.48138785 -3.40973978 -7.25432551 -2.72037207 0 0 Z " fill="#ECE6D5" transform="translate(291,306)"/>
<path d="M0 0 C0.99 0.33 1.98 0.66 3 1 C2.67 4.63 2.34 8.26 2 12 C1.01 12 0.02 12 -1 12 C-1 11.34 -1 10.68 -1 10 C-1.99 9.67 -2.98 9.34 -4 9 C-3.6875 5.625 -3.6875 5.625 -3 2 C-2.01 1.34 -1.02 0.68 0 0 Z " fill="#ECE8D9" transform="translate(373,207)"/>
<path d="M0 0 C3.51098025 4.01254885 5.76537994 8.20983041 8 13 C6.68 13.33 5.36 13.66 4 14 C2.93903537 12.42953257 1.90173765 10.84305483 0.875 9.25 C0.29492188 8.36828125 -0.28515625 7.4865625 -0.8828125 6.578125 C-2 4 -2 4 -1.1796875 1.671875 C-0.79039062 1.12015625 -0.40109375 0.5684375 0 0 Z " fill="#E9E9E6" transform="translate(406,339)"/>
<path d="M0 0 C2.6875 0.875 2.6875 0.875 5 2 C5.33 4.31 5.66 6.62 6 9 C4.68176698 8.40844669 3.37052949 7.80128537 2.0625 7.1875 C1.33160156 6.85105469 0.60070312 6.51460938 -0.15234375 6.16796875 C-2 5 -2 5 -3 2 C-2.01 1.34 -1.02 0.68 0 0 Z " fill="#F8F3E2" transform="translate(354,368)"/>
<path d="M0 0 C6.75 0.875 6.75 0.875 9 2 C9 2.66 9 3.32 9 4 C6.24075815 5.80411967 5.11027897 6.0127245 1.75 5.625 C0.8425 5.41875 -0.065 5.2125 -1 5 C-0.67 3.35 -0.34 1.7 0 0 Z " fill="#F8F1E0" transform="translate(398,388)"/>
<path d="M0 0 C-0.66 1.98 -1.32 3.96 -2 6 C-4.64 5.34 -7.28 4.68 -10 4 C-9.67 2.68 -9.34 1.36 -9 0 C-5.52176885 -1.15941038 -3.54104422 -0.70820884 0 0 Z " fill="#EDE6D7" transform="translate(399,387)"/>
<path d="M0 0 C2.31 0 4.62 0 7 0 C7 1.65 7 3.3 7 5 C4.125 5.625 4.125 5.625 1 6 C0.34 5.34 -0.32 4.68 -1 4 C-0.625 1.875 -0.625 1.875 0 0 Z " fill="#F0ECE0" transform="translate(417,393)"/>
<path d="M0 0 C-2.98646769 1.99097846 -5.59687262 2.94124926 -9 4 C-9.33 2.68 -9.66 1.36 -10 0 C-6.22996568 -2.61002376 -4.07631429 -1.66758312 0 0 Z " fill="#E7E8E8" transform="translate(358,200)"/>
<path d="M0 0 C0.33 0 0.66 0 1 0 C1.33186393 4.12665578 0.69566647 6.02744204 -1.875 9.25 C-2.40867187 9.93578125 -2.94234375 10.6215625 -3.4921875 11.328125 C-5 13 -5 13 -7 14 C-5.23570801 9.02790438 -2.6060834 4.56561939 0 0 Z " fill="#BFBFBF" transform="translate(513,433)"/>
<path d="M0 0 C1.4606285 2.64738916 2 3.89448334 2 7 C0.68 7.33 -0.64 7.66 -2 8 C-2 7.34 -2 6.68 -2 6 C-2.66 5.67 -3.32 5.34 -4 5 C-3.34 4.01 -2.68 3.02 -2 2 C-1.34 2 -0.68 2 0 2 C0 1.34 0 0.68 0 0 Z " fill="#E9E6DA" transform="translate(378,285)"/>
<path d="M0 0 C-1.485 2.475 -1.485 2.475 -3 5 C-3.99 4.67 -4.98 4.34 -6 4 C-5.67 3.67 -5.34 3.34 -5 3 C-5.99 2.67 -6.98 2.34 -8 2 C-8 1.34 -8 0.68 -8 0 C-4.71303767 -0.79953138 -3.28976808 -1.09658936 0 0 Z " fill="#E7E0D2" transform="translate(419,393)"/>
<path d="M0 0 C2.4375 0.375 2.4375 0.375 5 1 C5.33 1.66 5.66 2.32 6 3 C5.01 3.33 4.02 3.66 3 4 C2.67 4.66 2.34 5.32 2 6 C1.01 5.67 0.02 5.34 -1 5 C-0.67 3.35 -0.34 1.7 0 0 Z " fill="#E9E7DE" transform="translate(335,355)"/>
<path d="M0 0 C-0.125 1.75 -0.125 1.75 -1 4 C-4.0625 6.25 -4.0625 6.25 -7 8 C-7 5 -7 5 -4.625 2.3125 C-2 0 -2 0 0 0 Z " fill="#EEE8DB" transform="translate(205,261)"/>
<path d="M0 0 C0.66 0.33 1.32 0.66 2 1 C1.195625 1.763125 0.39125 2.52625 -0.4375 3.3125 C-3.16799024 5.79430898 -3.16799024 5.79430898 -4 9 C-5.32 8.01 -6.64 7.02 -8 6 C-5.36 4.02 -2.72 2.04 0 0 Z " fill="#E6E7E5" transform="translate(295,231)"/>
<path d="M0 0 C2.97 1.65 5.94 3.3 9 5 C8.67 5.66 8.34 6.32 8 7 C7.01 6.67 6.02 6.34 5 6 C5 5.34 5 4.68 5 4 C4.360625 3.896875 3.72125 3.79375 3.0625 3.6875 C2.381875 3.460625 1.70125 3.23375 1 3 C0.67 2.01 0.34 1.02 0 0 Z " fill="#E6E2D7" transform="translate(346,362)"/>
<path d="M0 0 C2.31 1.98 4.62 3.96 7 6 C6.34 6.66 5.68 7.32 5 8 C0 2.25 0 2.25 0 0 Z " fill="#B2B4B4" transform="translate(158,478)"/>
<path d="M0 0 C1.32 1.32 2.64 2.64 4 4 C3.34 4.66 2.68 5.32 2 6 C1.01 5.67 0.02 5.34 -1 5 C-0.67 3.35 -0.34 1.7 0 0 Z " fill="#C6C8C8" transform="translate(145,463)"/>
<path d="M0 0 C0.66 0.33 1.32 0.66 2 1 C0.515 3.475 0.515 3.475 -1 6 C-1.99 5.67 -2.98 5.34 -4 5 C-2.68 3.35 -1.36 1.7 0 0 Z " fill="#E3DCCF" transform="translate(363,322)"/>
</svg>
