<?xml version="1.0" encoding="UTF-8"?>
<svg version="1.1" xmlns="http://www.w3.org/2000/svg" width="640" height="640">
<path d="M0 0 C211.2 0 422.4 0 640 0 C640 211.2 640 422.4 640 640 C428.8 640 217.6 640 0 640 C0 428.8 0 217.6 0 0 Z " fill="#1D2832" transform="translate(0,0)"/>
<path d="M0 0 C7.26 0 14.52 0 22 0 C25.375 9 25.375 9 25.6875 13.5 C25.75324219 14.3559375 25.81898438 15.211875 25.88671875 16.09375 C25.94279297 17.03734375 25.94279297 17.03734375 26 18 C27.54016694 18.4839655 29.08222194 18.96192387 30.625 19.4375 C31.48351562 19.70433594 32.34203125 19.97117188 33.2265625 20.24609375 C34.14179688 20.49488281 35.05703125 20.74367187 36 21 C37.49273437 21.41958984 37.49273437 21.41958984 39.015625 21.84765625 C42.10121476 22.2953257 42.10121476 22.2953257 44.6328125 20.3125 C45.45523438 19.549375 46.27765625 18.78625 47.125 18 C49.6328125 15.6875 49.6328125 15.6875 52 14 C56.54576075 14.55046985 59.09416837 17.57924276 62.1875 20.6875 C62.73341797 21.20505859 63.27933594 21.72261719 63.84179688 22.25585938 C66.41892776 24.82021638 67.86367889 26.60645986 69.0703125 30.08984375 C68.98180561 33.75304574 68.02392146 35.09376884 65.6875 37.875 C65.05199219 38.65617187 64.41648437 39.43734375 63.76171875 40.2421875 C62 42 62 42 60 42 C60.63228516 43.24716797 60.63228516 43.24716797 61.27734375 44.51953125 C61.82519531 45.60621094 62.37304688 46.69289063 62.9375 47.8125 C63.48277344 48.89144531 64.02804687 49.97039062 64.58984375 51.08203125 C66 54 66 54 67 57 C69.72652946 57.88515994 72.27711412 58.57555711 75.0625 59.1875 C77.681875 59.785625 80.30125 60.38375 83 61 C83 68.26 83 75.52 83 83 C78.69440146 84.72223942 76.84349765 85.09898537 72.5 85.3125 C69.58065453 85.652264 69.58065453 85.652264 67 87 C64.29333779 91.06278369 62.75602855 95.1810394 62 100 C62.90508921 103.40138363 64.2341266 105.52553743 66.6875 108 C69 111 69 111 69.25 113.4375 C67.3116745 117.41106727 64.21683294 120.02800001 61 123 C60.071875 123.928125 59.14375 124.85625 58.1875 125.8125 C56.79166667 127.20833333 55.39583333 128.60416667 54 130 C49.73810423 129.59241745 47.21578774 126.87008326 44.09765625 124.1796875 C42.0452071 122.76539693 42.0452071 122.76539693 39.5703125 123.21484375 C38.72210938 123.47394531 37.87390625 123.73304688 37 124 C36.14019531 124.25136719 35.28039062 124.50273437 34.39453125 124.76171875 C29.03668433 126.52962394 29.03668433 126.52962394 25.5 130.625 C25.335 131.73875 25.17 132.8525 25 134 C24.65307679 135.77226663 24.29845997 137.54303889 23.9375 139.3125 C23.78152344 140.17488281 23.62554687 141.03726563 23.46484375 141.92578125 C23 144 23 144 22 145 C20.36527118 145.08700342 18.72685945 145.10701063 17.08984375 145.09765625 C16.10048828 145.09443359 15.11113281 145.09121094 14.09179688 145.08789062 C13.05087891 145.07951172 12.00996094 145.07113281 10.9375 145.0625 C9.89271484 145.05798828 8.84792969 145.05347656 7.77148438 145.04882812 C5.1809334 145.03699913 2.59049441 145.02051689 0 145 C-1.64182722 141.11434225 -2.34654982 137.91066107 -2.625 133.6875 C-2.69976562 132.61886719 -2.77453125 131.55023438 -2.8515625 130.44921875 C-2.90054688 129.64097656 -2.94953125 128.83273437 -3 128 C-3.67546875 127.80664062 -4.3509375 127.61328125 -5.046875 127.4140625 C-5.93890625 127.15367187 -6.8309375 126.89328125 -7.75 126.625 C-8.63171875 126.36976563 -9.5134375 126.11453125 -10.421875 125.8515625 C-13 125 -13 125 -15.078125 123.8359375 C-16.95900204 122.83525376 -16.95900204 122.83525376 -19 123.1796875 C-22.13925947 124.46727439 -24.43196844 126.6435045 -27 128.8203125 C-29 130 -29 130 -30.90698242 129.76025391 C-34.82378064 128.33754194 -37.40952957 125.14418242 -40.3125 122.25 C-40.97056641 121.62867188 -41.62863281 121.00734375 -42.30664062 120.3671875 C-46.96860866 115.74906243 -46.96860866 115.74906243 -47.11328125 112.296875 C-45.93466289 109.86519922 -44.64357578 108.0400316 -42.875 106 C-40.4769372 103.07057855 -40.4769372 103.07057855 -39.9375 99.4375 C-40.80980742 97.43632415 -41.68566044 95.43669419 -42.5625 93.4375 C-44 90 -44 90 -44 86 C-45.134375 86.061875 -46.26875 86.12375 -47.4375 86.1875 C-52 86 -52 86 -61 83 C-61 75.74 -61 68.48 -61 61 C-48.5 58 -48.5 58 -44 58 C-43.9175 57.360625 -43.835 56.72125 -43.75 56.0625 C-42.86857118 52.46333232 -41.3443592 49.46386374 -39.64453125 46.18359375 C-38.77713228 44.0171599 -38.77713228 44.0171599 -39.6875 41.97265625 C-41.56097777 39.15686376 -43.69109405 36.59522212 -45.85546875 34 C-47 32 -47 32 -46.76025391 30.09301758 C-45.33441906 26.16762189 -42.09744865 23.58575037 -39.1875 20.6875 C-38.55779297 20.02943359 -37.92808594 19.37136719 -37.27929688 18.69335938 C-36.66505859 18.07654297 -36.05082031 17.45972656 -35.41796875 16.82421875 C-34.85875732 16.25791748 -34.2995459 15.69161621 -33.72338867 15.1081543 C-32 14 -32 14 -29.92285156 14.21948242 C-26.5274053 15.59775079 -24.04097903 18.20393846 -21.31640625 20.6015625 C-19.09613181 22.25301742 -19.09613181 22.25301742 -16.53515625 21.78125 C-15.28025391 21.39453125 -15.28025391 21.39453125 -14 21 C-13.15179688 20.85304687 -12.30359375 20.70609375 -11.4296875 20.5546875 C-8.37624449 19.74230358 -6.45916412 19.01865299 -4 17 C-2.20928006 12.04950818 -1.62762768 7.2038256 -1 2 C-0.67 1.34 -0.34 0.68 0 0 Z " fill="#F8F9FA" transform="translate(309,219)"/>
<path d="M0 0 C8.38597267 6.01096727 15.92359178 14.61795889 18 25 C19.09499299 36.42898932 16.42480294 46.68488436 9.6953125 56.03515625 C3.16249445 63.60660205 -6.057578 68.44497019 -15.98046875 69.23828125 C-27.93007125 69.51482503 -36.28055169 66.20178162 -45 58 C-53.05948258 49.43973404 -55.5069972 41.59464772 -55.42211914 29.95288086 C-55.04638382 19.48772825 -50.51041352 11.7223525 -43.375 4.3125 C-32.06390123 -6.16073961 -13.42224032 -7.9167745 0 0 Z " fill="#222D37" transform="translate(339,261)"/>
<path d="M0 0 C1.0236264 0.00848969 1.0236264 0.00848969 2.06793213 0.01715088 C4.23872262 0.03946864 6.40783706 0.08964992 8.578125 0.140625 C10.0533615 0.16069624 11.52862399 0.17894593 13.00390625 0.1953125 C16.61252001 0.2393162 20.22015881 0.30830917 23.828125 0.390625 C23.168125 2.370625 22.508125 4.350625 21.828125 6.390625 C13.248125 6.390625 4.668125 6.390625 -4.171875 6.390625 C-4.171875 46.320625 -4.171875 86.250625 -4.171875 127.390625 C58.198125 127.390625 120.568125 127.390625 184.828125 127.390625 C184.828125 87.460625 184.828125 47.530625 184.828125 6.390625 C176.248125 6.390625 167.668125 6.390625 158.828125 6.390625 C156.828125 3.390625 156.828125 3.390625 156.828125 0.390625 C161.18803373 0.31644454 165.54760779 0.26200956 169.90795898 0.22583008 C171.39109699 0.21074732 172.87419044 0.19027811 174.35717773 0.16430664 C176.48953245 0.12789884 178.62129735 0.11089427 180.75390625 0.09765625 C182.67843628 0.07409058 182.67843628 0.07409058 184.6418457 0.05004883 C187.828125 0.390625 187.828125 0.390625 189.50303745 1.58970737 C191.28310645 4.00898725 191.20797848 5.55497085 191.21580505 8.54588318 C191.22570969 9.6128241 191.23561432 10.67976501 191.24581909 11.77903748 C191.24131744 12.94951126 191.2368158 14.11998505 191.23217773 15.32592773 C191.23904099 16.5586441 191.24590424 17.79136047 191.25297546 19.06143188 C191.2681582 22.44383194 191.26973272 25.82568173 191.26403308 29.20807528 C191.26094556 32.03120073 191.26702884 34.85427612 191.27307183 37.67739445 C191.287126 44.33746211 191.2855486 50.99740153 191.27416992 57.6574707 C191.26268917 64.52914735 191.27676126 71.4004337 191.3035664 78.2720589 C191.32571637 84.17109949 191.33236236 90.0700175 191.32648998 95.96909672 C191.32311729 99.49266564 191.32555573 103.01598439 191.34274101 106.53951836 C191.36106672 110.46847738 191.34703019 114.39695573 191.32983398 118.32592773 C191.34433594 120.07860207 191.34433594 120.07860207 191.35913086 121.86668396 C191.34437965 123.47132507 191.34437965 123.47132507 191.32933044 125.10838318 C191.32912116 126.03734122 191.32891188 126.96629927 191.32869625 127.92340755 C190.67097791 131.16517217 189.39019228 132.36191578 186.828125 134.390625 C183.89550781 134.93652344 183.89550781 134.93652344 180.53125 135 C179.32597656 135.03222656 178.12070312 135.06445312 176.87890625 135.09765625 C175.62464844 135.11183594 174.37039063 135.12601563 173.078125 135.140625 C171.80839844 135.17027344 170.53867187 135.19992187 169.23046875 135.23046875 C166.09629015 135.30116451 162.96285544 135.35386512 159.828125 135.390625 C159.828125 136.050625 159.828125 136.710625 159.828125 137.390625 C157.188125 137.390625 154.548125 137.390625 151.828125 137.390625 C151.828125 136.400625 151.828125 135.410625 151.828125 134.390625 C111.238125 134.390625 70.648125 134.390625 28.828125 134.390625 C28.828125 135.380625 28.828125 136.370625 28.828125 137.390625 C26.188125 137.390625 23.548125 137.390625 20.828125 137.390625 C20.828125 136.400625 20.828125 135.410625 20.828125 134.390625 C20.03639893 134.41680908 19.24467285 134.44299316 18.42895508 134.4699707 C14.83304783 134.57406622 11.23745769 134.638994 7.640625 134.703125 C5.77180664 134.7659668 5.77180664 134.7659668 3.86523438 134.83007812 C2.66318359 134.84619141 1.46113281 134.86230469 0.22265625 134.87890625 C-1.43479614 134.91818237 -1.43479614 134.91818237 -3.12573242 134.95825195 C-7.42837188 134.15648576 -8.57921678 132.93703007 -11.171875 129.390625 C-11.92340285 125.403123 -11.84432485 121.45937268 -11.80297852 117.41186523 C-11.81013382 116.19836395 -11.81728912 114.98486267 -11.82466125 113.73458862 C-11.83865867 110.41391135 -11.83025635 107.09479471 -11.81057096 103.77424502 C-11.79416462 100.29675815 -11.80299992 96.81932144 -11.80809021 93.34181213 C-11.81260839 87.50354175 -11.79675733 81.66559205 -11.76879883 75.82739258 C-11.73673279 69.07947466 -11.73676912 62.33213456 -11.7540136 55.58417553 C-11.7698805 49.08877411 -11.76314518 42.59358437 -11.74607658 36.09819221 C-11.73920755 33.33547385 -11.74023684 30.57292524 -11.74762154 27.81020927 C-11.75670936 23.95324567 -11.73274483 20.09687538 -11.70532227 16.23999023 C-11.71184814 15.09338425 -11.71837402 13.94677826 -11.72509766 12.76542664 C-11.7123732 11.71538452 -11.69964874 10.66534241 -11.6865387 9.58348083 C-11.68373178 8.67186912 -11.68092485 7.7602574 -11.67803288 6.82102108 C-10.33624112 0.37819841 -5.78687969 -0.09486688 0 0 Z " fill="#ECEEF1" transform="translate(230.171875,259.609375)"/>
<path d="M0 0 C0.68835938 0.02255859 1.37671875 0.04511719 2.0859375 0.06835938 C3.76658245 0.1267151 5.44609153 0.21637929 7.125 0.3125 C7.62 1.7975 7.62 1.7975 8.125 3.3125 C4.825 6.6125 1.525 9.9125 -1.875 13.3125 C5.63799118 14.3067255 5.63799118 14.3067255 12.26953125 11.15625 C17.3625762 6.77223359 17.3625762 6.77223359 21.125 1.3125 C22.115 1.3125 23.105 1.3125 24.125 1.3125 C24.125 1.9725 24.125 2.6325 24.125 3.3125 C22.16572937 5.0268618 20.16619788 6.69655168 18.125 8.3125 C19.115 8.9725 20.105 9.6325 21.125 10.3125 C20.155625 10.60125 19.18625 10.89 18.1875 11.1875 C15.01835797 11.95464682 15.01835797 11.95464682 14.125 14.3125 C21.055 13.3225 21.055 13.3225 28.125 12.3125 C28.125 13.3025 28.125 14.2925 28.125 15.3125 C36.62501885 14.2016747 36.62501885 14.2016747 44.125 10.3125 C44.125 11.6325 44.125 12.9525 44.125 14.3125 C51.44373297 14.27990354 51.44373297 14.27990354 57.8125 11.25 C58.245625 10.610625 58.67875 9.97125 59.125 9.3125 C58.795 10.9625 58.465 12.6125 58.125 14.3125 C59.115 14.3125 60.105 14.3125 61.125 14.3125 C61.125 16.2925 61.125 18.2725 61.125 20.3125 C82.245 20.3125 103.365 20.3125 125.125 20.3125 C125.125 18.9925 125.125 17.6725 125.125 16.3125 C122.485 15.9825 119.845 15.6525 117.125 15.3125 C117.125 14.9825 117.125 14.6525 117.125 14.3125 C121.085 14.3125 125.045 14.3125 129.125 14.3125 C128.135 12.8275 128.135 12.8275 127.125 11.3125 C126.73112212 8.98862053 126.39013915 6.65456251 126.125 4.3125 C125.465 4.3125 124.805 4.3125 124.125 4.3125 C124.125 3.3225 124.125 2.3325 124.125 1.3125 C121.155 1.3125 118.185 1.3125 115.125 1.3125 C115.125 2.9625 115.125 4.6125 115.125 6.3125 C113.145 5.3225 113.145 5.3225 111.125 4.3125 C111.125 3.3225 111.125 2.3325 111.125 1.3125 C108.155 1.3125 105.185 1.3125 102.125 1.3125 C102.29 2.1375 102.455 2.9625 102.625 3.8125 C103.18396045 7.72522317 103.19307187 11.36433173 103.125 15.3125 C101.145 14.8175 101.145 14.8175 99.125 14.3125 C99.16625 13.466875 99.2075 12.62125 99.25 11.75 C99.11330848 7.99098312 98.24710445 4.88920795 97.125 1.3125 C97.125 0.9825 97.125 0.6525 97.125 0.3125 C107.685 0.3125 118.245 0.3125 129.125 0.3125 C129.455 2.2925 129.785 4.2725 130.125 6.3125 C131.09387581 8.32776169 132.0891321 10.33083966 133.125 12.3125 C133.125 12.9725 133.125 13.6325 133.125 14.3125 C136.425 14.3125 139.725 14.3125 143.125 14.3125 C142.63 13.384375 142.135 12.45625 141.625 11.5 C140.125 8.3125 140.125 8.3125 140.125 5.3125 C142.87957718 5.69244168 143.94520574 6.1198633 145.875 8.1875 C147.125 10.3125 147.125 10.3125 147.125 13.3125 C152.57 13.8075 152.57 13.8075 158.125 14.3125 C157.53589844 13.55324219 156.94679688 12.79398437 156.33984375 12.01171875 C155.21255859 10.52091797 155.21255859 10.52091797 154.0625 9 C153.30839844 8.01386719 152.55429687 7.02773438 151.77734375 6.01171875 C151.23207031 5.12097656 150.68679688 4.23023438 150.125 3.3125 C150.455 2.3225 150.785 1.3325 151.125 0.3125 C151.785 0.3125 152.445 0.3125 153.125 0.3125 C153.67683718 1.64165623 154.21630975 2.97595398 154.75 4.3125 C155.96315907 6.64629967 155.96315907 6.64629967 158.125 8.3125 C162.86398886 8.97752938 167.40118045 8.69804304 172.16162109 8.39404297 C176.17936807 8.22717807 180.15007701 8.77741421 184.125 9.3125 C183.3 8.384375 182.475 7.45625 181.625 6.5 C179.125 3.6875 179.125 3.6875 179.125 0.3125 C192.94822386 -1.06134188 192.94822386 -1.06134188 197.91015625 2.0703125 C200.13576314 4.38619974 202.12516552 6.80070789 204.125 9.3125 C205.5105734 10.617164 206.92624357 11.89087415 208.375 13.125 C209.34179688 13.95644531 209.34179688 13.95644531 210.328125 14.8046875 C212.56320251 16.68020906 214.82575881 18.51621782 217.125 20.3125 C216.795 21.9625 216.465 23.6125 216.125 25.3125 C184.94749286 25.33529405 153.76998792 25.35300008 122.59247444 25.36356533 C118.91483972 25.36481609 115.23720501 25.36611041 111.55957031 25.36743164 C110.82739431 25.36769395 110.09521832 25.36795626 109.34085517 25.36822652 C97.47289442 25.37258231 85.60493851 25.38046936 73.73698063 25.3896528 C61.56673772 25.39899186 49.39649735 25.40455615 37.22625101 25.40658849 C29.7116447 25.40796319 22.19705203 25.41231094 14.68244992 25.42041647 C8.92815415 25.42630851 3.1738672 25.42695832 -2.58043098 25.42560768 C-4.94682588 25.425884 -7.31322128 25.42788898 -9.67961311 25.43170547 C-12.89754266 25.43664306 -16.11541273 25.43549802 -19.33334351 25.43275452 C-20.28080016 25.43566736 -21.2282568 25.4385802 -22.20442426 25.44158131 C-23.49054528 25.43859474 -23.49054528 25.43859474 -24.80264854 25.43554783 C-25.54614095 25.43592755 -26.28963336 25.43630727 -27.05565584 25.4366985 C-28.875 25.3125 -28.875 25.3125 -30.875 24.3125 C-30.30170937 20.7703309 -29.107996 19.2219919 -26.48828125 16.81640625 C-25.79669922 16.17509766 -25.10511719 15.53378906 -24.39257812 14.87304688 C-23.66490234 14.21369141 -22.93722656 13.55433594 -22.1875 12.875 C-21.47916016 12.21951172 -20.77082031 11.56402344 -20.04101562 10.88867188 C-18.64498968 9.60350302 -17.23918031 8.32887083 -15.82324219 7.06567383 C-14.62117378 5.9839629 -13.43945199 4.87849887 -12.29394531 3.73706055 C-8.4326545 0.05892684 -5.10221285 -0.32136031 0 0 Z " fill="#F5F7F8" transform="translate(226.875,398.6875)"/>
<path d="M0 0 C0.33 0.99 0.66 1.98 1 3 C19.81 3.495 19.81 3.495 39 4 C39 4.33 39 4.66 39 5 C34.38 5 29.76 5 25 5 C25.99 7.97 25.99 7.97 27 11 C27.99 11.33 28.98 11.66 30 12 C30 12.66 30 13.32 30 14 C25.77154434 14.20357077 21.54434786 14.32772735 17.3125 14.4375 C15.51522461 14.52547852 15.51522461 14.52547852 13.68164062 14.61523438 C5.00577884 14.7844016 5.00577884 14.7844016 2.05224609 12.48095703 C0.3056027 10.10465948 -1 8.01330106 -1 5 C-1.66 5.33 -2.32 5.66 -3 6 C-1.94035767 9.27525811 -0.60721355 11.61381469 1.625 14.1875 C4 17 4 17 4 19 C2.54176788 19.0270043 1.08339325 19.04639787 -0.375 19.0625 C-1.18710937 19.07410156 -1.99921875 19.08570313 -2.8359375 19.09765625 C-5 19 -5 19 -7 18 C-8.06510435 16.24063735 -8.97376213 14.4283566 -9.90234375 12.59375 C-10.99297055 10.66793274 -10.99297055 10.66793274 -14 10 C-13.505 10.928125 -13.01 11.85625 -12.5 12.8125 C-11 16 -11 16 -11 19 C-14.3 19 -17.6 19 -21 19 C-21.84069415 17.39967863 -22.67231505 15.79458829 -23.5 14.1875 C-23.9640625 13.29417969 -24.428125 12.40085937 -24.90625 11.48046875 C-26 9 -26 9 -26 6 C-35.9 6 -45.8 6 -56 6 C-55.01 9.465 -55.01 9.465 -54 13 C-53.875 16.4375 -53.875 16.4375 -54 19 C-52.515 19.495 -52.515 19.495 -51 20 C-51.495 19.01 -51.495 19.01 -52 18 C-52.07065617 15.95944995 -52.08421976 13.91665743 -52.0625 11.875 C-52.05347656 10.77929688 -52.04445313 9.68359375 -52.03515625 8.5546875 C-52.02355469 7.71164062 -52.01195312 6.86859375 -52 6 C-50.54257537 5.91903197 -49.08387193 5.86082226 -47.625 5.8125 C-46.40683594 5.76029297 -46.40683594 5.76029297 -45.1640625 5.70703125 C-44.44992187 5.80371094 -43.73578125 5.90039062 -43 6 C-42.01 7.485 -42.01 7.485 -41 9 C-40.34 8.01 -39.68 7.02 -39 6 C-36.8359375 5.70703125 -36.8359375 5.70703125 -34.375 5.8125 C-33.55773437 5.83957031 -32.74046875 5.86664063 -31.8984375 5.89453125 C-31.27195312 5.92933594 -30.64546875 5.96414063 -30 6 C-30 6.99 -30 7.98 -30 9 C-29.34 9 -28.68 9 -28 9 C-27.01 12.3 -26.02 15.6 -25 19 C-27.31 19.33 -29.62 19.66 -32 20 C-31.01 20.33 -30.02 20.66 -29 21 C-29 22.32 -29 23.64 -29 25 C-50.12 25 -71.24 25 -93 25 C-93 23.02 -93 21.04 -93 19 C-93.99 19 -94.98 19 -96 19 C-96 17.68 -96 16.36 -96 15 C-96.37769531 15.65484375 -96.75539063 16.3096875 -97.14453125 16.984375 C-99 19 -99 19 -101.69921875 19.390625 C-102.68535156 19.34421875 -103.67148437 19.2978125 -104.6875 19.25 C-105.68136719 19.21390625 -106.67523438 19.1778125 -107.69921875 19.140625 C-108.45847656 19.09421875 -109.21773438 19.0478125 -110 19 C-110.495 17.515 -110.495 17.515 -111 16 C-111.5775 16.474375 -112.155 16.94875 -112.75 17.4375 C-117.02182494 20.4040451 -120.87691175 20.09852093 -126 20 C-126.495 19.01 -126.495 19.01 -127 18 C-127.99 18.33 -128.98 18.66 -130 19 C-131.72795352 19.06802967 -133.45835365 19.08495645 -135.1875 19.0625 C-136.08855469 19.05347656 -136.98960937 19.04445313 -137.91796875 19.03515625 C-138.60503906 19.02355469 -139.29210937 19.01195312 -140 19 C-138.64763423 16.06120516 -137.10057341 13.70767089 -135 11.25 C-134.484375 10.63640625 -133.96875 10.0228125 -133.4375 9.390625 C-132 8 -132 8 -130 8 C-130 7.34 -130 6.68 -130 6 C-130.99 6 -131.98 6 -133 6 C-133.35964844 6.84304688 -133.35964844 6.84304688 -133.7265625 7.703125 C-136.39082363 12.50860213 -140.38636653 16.08901698 -145 19 C-149.12493498 19.72137947 -152.8642918 19.57558826 -157 19 C-156.61328125 18.55269531 -156.2265625 18.10539062 -155.828125 17.64453125 C-149.93284525 11.91158292 -149.93284525 11.91158292 -147 5 C-151.62 5 -156.24 5 -161 5 C-161 4.67 -161 4.34 -161 4 C-81.8 3.505 -81.8 3.505 -1 3 C-0.67 2.01 -0.34 1.02 0 0 Z " fill="#D1D6DA" transform="translate(381,394)"/>
<path d="M0 0 C5.46127807 3.66114342 9.59330676 8.21742028 11.6875 14.5 C12.35752398 21.91419982 12.35778896 28.43384256 7.6875 34.5 C1.88428359 40.73537082 -3.13119814 43.48661216 -11.6875 43.875 C-17.97815452 43.72989671 -22.3823238 42.19043451 -27.03125 37.921875 C-32.43633313 32.03987277 -34.94769096 25.99900134 -34.65625 17.984375 C-33.62781305 10.55158066 -29.03012763 5.08866931 -23.3125 0.5 C-15.82670958 -3.96268275 -7.61507176 -4.20893273 0 0 Z " fill="#F8F9FA" transform="translate(331.3125,272.5)"/>
<path d="M0 0 C0.76978683 0.00424484 1.53957367 0.00848969 2.33268738 0.01286316 C4.77814521 0.02958278 7.22276232 0.06722105 9.66796875 0.10546875 C11.33136826 0.12052434 12.99478076 0.13421121 14.65820312 0.14648438 C18.72427957 0.1794641 22.78973188 0.23119869 26.85546875 0.29296875 C26.85546875 0.62296875 26.85546875 0.95296875 26.85546875 1.29296875 C23.88546875 1.29296875 20.91546875 1.29296875 17.85546875 1.29296875 C17.52546875 4.92296875 17.19546875 8.55296875 16.85546875 12.29296875 C20.15546875 12.62296875 23.45546875 12.95296875 26.85546875 13.29296875 C27.18546875 11.97296875 27.51546875 10.65296875 27.85546875 9.29296875 C27.85546875 10.28296875 27.85546875 11.27296875 27.85546875 12.29296875 C28.51546875 12.29296875 29.17546875 12.29296875 29.85546875 12.29296875 C30.18546875 11.63296875 30.51546875 10.97296875 30.85546875 10.29296875 C30.85546875 11.28296875 30.85546875 12.27296875 30.85546875 13.29296875 C34.48546875 13.29296875 38.11546875 13.29296875 41.85546875 13.29296875 C41.36046875 11.31296875 41.36046875 11.31296875 40.85546875 9.29296875 C41.51546875 8.96296875 42.17546875 8.63296875 42.85546875 8.29296875 C42.85546875 10.27296875 42.85546875 12.25296875 42.85546875 14.29296875 C43.84546875 14.62296875 44.83546875 14.95296875 45.85546875 15.29296875 C45.36046875 14.30296875 45.36046875 14.30296875 44.85546875 13.29296875 C44.78481258 11.2524187 44.77124899 9.20962618 44.79296875 7.16796875 C44.80199219 6.07226562 44.81101562 4.9765625 44.8203125 3.84765625 C44.83191406 3.00460937 44.84351563 2.1615625 44.85546875 1.29296875 C46.31289338 1.21200072 47.77159682 1.15379101 49.23046875 1.10546875 C50.44863281 1.05326172 50.44863281 1.05326172 51.69140625 1 C52.40554688 1.09667969 53.1196875 1.19335938 53.85546875 1.29296875 C54.84546875 2.77796875 54.84546875 2.77796875 55.85546875 4.29296875 C56.51546875 3.30296875 57.17546875 2.31296875 57.85546875 1.29296875 C60.01953125 1 60.01953125 1 62.48046875 1.10546875 C63.29773438 1.13253906 64.115 1.15960938 64.95703125 1.1875 C65.58351563 1.22230469 66.21 1.25710938 66.85546875 1.29296875 C66.85546875 2.28296875 66.85546875 3.27296875 66.85546875 4.29296875 C67.51546875 4.29296875 68.17546875 4.29296875 68.85546875 4.29296875 C69.84546875 7.59296875 70.83546875 10.89296875 71.85546875 14.29296875 C69.54546875 14.62296875 67.23546875 14.95296875 64.85546875 15.29296875 C65.84546875 15.62296875 66.83546875 15.95296875 67.85546875 16.29296875 C67.85546875 17.61296875 67.85546875 18.93296875 67.85546875 20.29296875 C46.73546875 20.29296875 25.61546875 20.29296875 3.85546875 20.29296875 C3.85546875 18.31296875 3.85546875 16.33296875 3.85546875 14.29296875 C2.86546875 14.29296875 1.87546875 14.29296875 0.85546875 14.29296875 C0.85546875 12.97296875 0.85546875 11.65296875 0.85546875 10.29296875 C0.47777344 10.9478125 0.10007812 11.60265625 -0.2890625 12.27734375 C-2.14453125 14.29296875 -2.14453125 14.29296875 -4.84375 14.68359375 C-6.32294922 14.61398437 -6.32294922 14.61398437 -7.83203125 14.54296875 C-8.82589844 14.506875 -9.81976563 14.47078125 -10.84375 14.43359375 C-11.98263672 14.36398437 -11.98263672 14.36398437 -13.14453125 14.29296875 C-13.47453125 13.30296875 -13.80453125 12.31296875 -14.14453125 11.29296875 C-15.13453125 11.95296875 -16.12453125 12.61296875 -17.14453125 13.29296875 C-17.14453125 9.29296875 -17.14453125 9.29296875 -15.70703125 7.73046875 C-15.19140625 7.25609375 -14.67578125 6.78171875 -14.14453125 6.29296875 C-13.81453125 5.30296875 -13.48453125 4.31296875 -13.14453125 3.29296875 C-9.01830039 -0.06109621 -5.10002857 -0.10674599 0 0 Z " fill="#ECF2F5" transform="translate(284.14453125,398.70703125)"/>
<path d="M0 0 C1.02641602 0.02094727 2.05283203 0.04189453 3.11035156 0.06347656 C4.22539062 0.07636719 5.34042969 0.08925781 6.48925781 0.10253906 C8.22755859 0.1528125 8.22755859 0.1528125 10.00097656 0.20410156 C11.76248047 0.23117187 11.76248047 0.23117187 13.55957031 0.25878906 C16.45752996 0.30591036 19.35384074 0.37168851 22.25097656 0.45410156 C22.25097656 1.44410156 22.25097656 2.43410156 22.25097656 3.45410156 C24.89097656 3.45410156 27.53097656 3.45410156 30.25097656 3.45410156 C30.25097656 2.46410156 30.25097656 1.47410156 30.25097656 0.45410156 C70.51097656 0.45410156 110.77097656 0.45410156 152.25097656 0.45410156 C151.92097656 1.77410156 151.59097656 3.09410156 151.25097656 4.45410156 C99.11097656 4.45410156 46.97097656 4.45410156 -6.74902344 4.45410156 C-2.74902344 0.45410156 -2.74902344 0.45410156 0 0 Z " fill="#27313A" transform="translate(228.7490234375,393.5458984375)"/>
<path d="M0 0 C6.8359375 -0.29296875 6.8359375 -0.29296875 9 0 C9.66 0.99 10.32 1.98 11 3 C11.66 2.01 12.32 1.02 13 0 C15.1640625 -0.29296875 15.1640625 -0.29296875 17.625 -0.1875 C18.44226563 -0.16042969 19.25953125 -0.13335937 20.1015625 -0.10546875 C20.72804688 -0.07066406 21.35453125 -0.03585937 22 0 C22 0.99 22 1.98 22 3 C22.66 3 23.32 3 24 3 C24.99 6.3 25.98 9.6 27 13 C24.69 13.33 22.38 13.66 20 14 C20.99 14.33 21.98 14.66 23 15 C23 16.32 23 17.64 23 19 C2.21 19 -18.58 19 -40 19 C-40 17.68 -40 16.36 -40 15 C-22.84 14.67 -5.68 14.34 12 14 C12.33 12.02 12.66 10.04 13 8 C12.34 8 11.68 8 11 8 C11 9.32 11 10.64 11 12 C7.37 12 3.74 12 0 12 C0 8.04 0 4.08 0 0 Z " fill="#C8CBCC" transform="translate(329,400)"/>
<path d="M0 0 C1.64019775 4.55897484 2.19447287 8.13817832 2 13 C-6.66666667 13 -15.33333333 13 -24 13 C-23.34 9.04 -22.68 5.08 -22 1 C-14.63512596 0.00137301 -7.42686315 -0.10331031 0 0 Z " fill="#DADEE0" transform="translate(324,399)"/>
<path d="M0 0 C2.0164583 0.03979852 4.0324896 0.11124076 6.046875 0.2109375 C7.59375 0.25154297 7.59375 0.25154297 9.171875 0.29296875 C11.7156625 0.36362951 14.25520599 0.46221672 16.796875 0.5859375 C16.015217 4.66323462 14.96859966 8.60207364 13.796875 12.5859375 C10.496875 12.5859375 7.196875 12.5859375 3.796875 12.5859375 C3.466875 11.5959375 3.136875 10.6059375 2.796875 9.5859375 C2.41917969 10.24078125 2.04148437 10.895625 1.65234375 11.5703125 C-0.203125 13.5859375 -0.203125 13.5859375 -2.90234375 13.9765625 C-4.38154297 13.90695312 -4.38154297 13.90695312 -5.890625 13.8359375 C-6.88449219 13.79984375 -7.87835938 13.76375 -8.90234375 13.7265625 C-10.04123047 13.65695312 -10.04123047 13.65695312 -11.203125 13.5859375 C-8.01489258 0.30163574 -8.01489258 0.30163574 0 0 Z " fill="#D2D6D9" transform="translate(282.203125,399.4140625)"/>
<path d="M0 0 C20.79 0 41.58 0 63 0 C63 1.32 63 2.64 63 4 C42.21 4 21.42 4 0 4 C0 2.68 0 1.36 0 0 Z " fill="#343C43" transform="translate(289,415)"/>
<path d="M0 0 C0 0.33 0 0.66 0 1 C-4.62 1 -9.24 1 -14 1 C-13.34 2.98 -12.68 4.96 -12 7 C-11.01 7.33 -10.02 7.66 -9 8 C-9 8.66 -9 9.32 -9 10 C-13.22845566 10.20357077 -17.45565214 10.32772735 -21.6875 10.4375 C-23.48477539 10.52547852 -23.48477539 10.52547852 -25.31835938 10.61523438 C-33.99422116 10.7844016 -33.99422116 10.7844016 -36.94775391 8.48095703 C-38.6943973 6.10465948 -40 4.01330106 -40 1 C-26.65965829 0.37174743 -13.35700949 -0.17678395 0 0 Z " fill="#AFB2B5" transform="translate(420,398)"/>
<path d="M0 0 C0.33 0.99 0.66 1.98 1 3 C11.89 3.495 11.89 3.495 23 4 C23 4.33 23 4.66 23 5 C-32.77 5 -88.54 5 -146 5 C-146 4.67 -146 4.34 -146 4 C-98.15 3.67 -50.3 3.34 -1 3 C-0.67 2.01 -0.34 1.02 0 0 Z " fill="#575F66" transform="translate(381,394)"/>
<path d="M0 0 C0.99 0.66 1.98 1.32 3 2 C2.34 4.31 1.68 6.62 1 9 C-16.16 9 -33.32 9 -51 9 C-51.33 10.32 -51.66 11.64 -52 13 C-52 11.35 -52 9.7 -52 8 C-45.565 7.505 -45.565 7.505 -39 7 C-39 6.67 -39 6.34 -39 6 C-35.7 6 -32.4 6 -29 6 C-28.67 4.68 -28.34 3.36 -28 2 C-28 2.99 -28 3.98 -28 5 C-27.34 5 -26.68 5 -26 5 C-25.67 4.34 -25.34 3.68 -25 3 C-25 3.99 -25 4.98 -25 6 C-21.37 6 -17.74 6 -14 6 C-14.495 4.02 -14.495 4.02 -15 2 C-14.34 1.67 -13.68 1.34 -13 1 C-13 2.98 -13 4.96 -13 7 C-12.01 7.33 -11.02 7.66 -10 8 C-10 7.34 -10 6.68 -10 6 C-6.7 6 -3.4 6 0 6 C-0.495 4.02 -0.495 4.02 -1 2 C-0.67 1.34 -0.34 0.68 0 0 Z " fill="#CCD1D4" transform="translate(340,406)"/>
<path d="M0 0 C-1 3 -1 3 -4 5 C-4.82330712 6.20099587 -5.63500105 7.41000159 -6.4375 8.625 C-8.6211876 11.30876873 -9.57794794 11.93693475 -13.05859375 12.45703125 C-16.06726798 12.43931232 -19.00754818 12.30505577 -22 12 C-20.06537947 9.60475553 -18.06020443 7.28810316 -16 5 C-15.45859375 4.39414062 -14.9171875 3.78828125 -14.359375 3.1640625 C-9.69349264 -1.48001668 -6.27110587 -1.56422142 0 0 Z " fill="#52575C" transform="translate(246,401)"/>
<path d="M0 0 C0 0.66 0 1.32 0 2 C-0.66 2 -1.32 2 -2 2 C-2.0825 2.70125 -2.165 3.4025 -2.25 4.125 C-3.25253916 7.96806678 -4.2348226 10.0999359 -7 13 C-10.38798644 13.51591002 -13.60016668 13.3503645 -17 13 C-10.2173913 -0.68115942 -10.2173913 -0.68115942 0 0 Z " fill="#676B70" transform="translate(273,400)"/>
<path d="M0 0 C-0.59687434 3.34249629 -1.73603877 5.46436342 -4 8 C-4.66 8 -5.32 8 -6 8 C-6.144375 8.639375 -6.28875 9.27875 -6.4375 9.9375 C-7 12 -7 12 -8 13 C-9.68608966 13.07205511 -11.37500659 13.08386068 -13.0625 13.0625 C-13.98160156 13.05347656 -14.90070313 13.04445313 -15.84765625 13.03515625 C-16.55792969 13.02355469 -17.26820313 13.01195312 -18 13 C-16.66342976 10.09663689 -15.15277429 7.7897189 -13.0625 5.375 C-12.55847656 4.78460938 -12.05445313 4.19421875 -11.53515625 3.5859375 C-7.82190199 -0.25014706 -5.12334881 -0.19333392 0 0 Z " fill="#585B5F" transform="translate(259,400)"/>
<path d="M0 0 C3.19671333 -0.66598194 5.82163464 -0.82275097 9 0 C12.24992778 2.94574735 14.74141012 6.24594053 17 10 C17 10.66 17 11.32 17 12 C15.54176788 12.0270043 14.08339325 12.04639787 12.625 12.0625 C11.81289063 12.07410156 11.00078125 12.08570313 10.1640625 12.09765625 C8 12 8 12 6 11 C3.82749312 7.40178548 1.86238399 3.76633904 0 0 Z " fill="#595E62" transform="translate(368,401)"/>
<path d="M0 0 C3.7499837 -0.02905924 7.49993837 -0.04681874 11.25 -0.0625 C12.84521484 -0.07506836 12.84521484 -0.07506836 14.47265625 -0.08789062 C15.49746094 -0.09111328 16.52226562 -0.09433594 17.578125 -0.09765625 C18.99206543 -0.10551147 18.99206543 -0.10551147 20.43457031 -0.11352539 C22.78123437 -0.00968082 24.75644478 0.33293471 27 1 C27 1.99 27 2.98 27 4 C18.42 4 9.84 4 1 4 C0.67 2.68 0.34 1.36 0 0 Z " fill="#242E36" transform="translate(389,394)"/>
<path d="M0 0 C9.57 0 19.14 0 29 0 C29 0.99 29 1.98 29 3 C18.95415947 3.15723924 9.0188648 2.67192387 -1 2 C-0.67 1.34 -0.34 0.68 0 0 Z " fill="#2A323B" transform="translate(323,416)"/>
<path d="M0 0 C2.29013653 3.4352048 2.17842973 4.985331 2 9 C5.3 9.33 8.6 9.66 12 10 C12 10.33 12 10.66 12 11 C8.22918278 11.02899599 4.45839417 11.04679729 0.6875 11.0625 C-0.9202832 11.07506836 -0.9202832 11.07506836 -2.56054688 11.08789062 C-3.58857422 11.09111328 -4.61660156 11.09433594 -5.67578125 11.09765625 C-7.0975769 11.10551147 -7.0975769 11.10551147 -8.5480957 11.11352539 C-11 11 -11 11 -14 10 C-13.67 9.34 -13.34 8.68 -13 8 C-9.7 8 -6.4 8 -3 8 C-2.87625 7.05125 -2.7525 6.1025 -2.625 5.125 C-2 2 -2 2 0 0 Z " fill="#E5E7EA" transform="translate(299,403)"/>
<path d="M0 0 C3.03333332 -0.22893082 5.97318834 -0.34883468 9 0 C11.0625 1.8125 11.0625 1.8125 12 4 C12 4.99 12 5.98 12 7 C8.7 7 5.4 7 2 7 C0 3 0 3 0 0 Z " fill="#626669" transform="translate(358,406)"/>
<path d="M0 0 C3.3 0 6.6 0 10 0 C9.125 4.75 9.125 4.75 8 7 C4.7 7 1.4 7 -2 7 C-1.34 4.69 -0.68 2.38 0 0 Z " fill="#5D6263" transform="translate(273,406)"/>
<path d="M0 0 C11.70134149 -0.15956375 23.31923512 0.33591591 35 1 C33.1875 2.0625 33.1875 2.0625 31 3 C30.01 2.67 29.02 2.34 28 2 C27.34 3.32 26.68 4.64 26 6 C25.67 5.34 25.34 4.68 25 4 C21.25879194 3.39657934 17.78319079 3 14 3 C14 2.34 14 1.68 14 1 C9.38 1 4.76 1 0 1 C0 0.67 0 0.34 0 0 Z M25 7 C24 8 24 8 21.49609375 8.09765625 C19.98208984 8.08025391 19.98208984 8.08025391 18.4375 8.0625 C17.42558594 8.05347656 16.41367188 8.04445313 15.37109375 8.03515625 C14.58863281 8.02355469 13.80617187 8.01195312 13 8 C13 7.67 13 7.34 13 7 C14.43640171 6.80426392 15.87419504 6.61872184 17.3125 6.4375 C18.11300781 6.33308594 18.91351563 6.22867187 19.73828125 6.12109375 C22 6 22 6 25 7 Z " fill="#C8CDD3" transform="translate(220,398)"/>
<path d="M0 0 C3.63 0 7.26 0 11 0 C11 1.98 11 3.96 11 6 C7.37 6 3.74 6 0 6 C0 4.02 0 2.04 0 0 Z " fill="#666D71" transform="translate(329,406)"/>
<path d="M0 0 C3.63 0 7.26 0 11 0 C11 1.98 11 3.96 11 6 C7.37 6 3.74 6 0 6 C0 4.02 0 2.04 0 0 Z " fill="#616668" transform="translate(315,406)"/>
<path d="M0 0 C3.3 0 6.6 0 10 0 C9.67 1.98 9.34 3.96 9 6 C5.37 6 1.74 6 -2 6 C-1.34 4.02 -0.68 2.04 0 0 Z " fill="#565C60" transform="translate(302,406)"/>
<path d="M0 0 C3.3 0 6.6 0 10 0 C10 1.65 10 3.3 10 5 C9 6 9 6 6.71484375 6.09765625 C5.34005859 6.08025391 5.34005859 6.08025391 3.9375 6.0625 C3.01839844 6.05347656 2.09929687 6.04445313 1.15234375 6.03515625 C0.44207031 6.02355469 -0.26820313 6.01195312 -1 6 C-0.67 4.02 -0.34 2.04 0 0 Z " fill="#545858" transform="translate(287,406)"/>
<path d="M0 0 C2.97 0 5.94 0 9 0 C9.66 1.98 10.32 3.96 11 6 C7.7 6 4.4 6 1 6 C0.67 4.02 0.34 2.04 0 0 Z " fill="#51565A" transform="translate(344,406)"/>
<path d="M0 0 C0 0.66 0 1.32 0 2 C0.66 2.33 1.32 2.66 2 3 C0.33969118 4.66030882 -1.59753597 4.28918251 -3.875 4.375 C-6.609375 4.3671875 -6.609375 4.3671875 -9 4 C-11.125 1.5 -11.125 1.5 -12 -1 C-3.42857143 -2.42857143 -3.42857143 -2.42857143 0 0 Z " fill="#626466" transform="translate(394,404)"/>
<path d="M0 0 C1.134375 0.020625 2.26875 0.04125 3.4375 0.0625 C3.125 1.9375 3.125 1.9375 2.4375 4.0625 C-0.76630017 6.19836678 -1.58189967 6.29382175 -5.25 6.1875 C-6.46236328 6.16042969 -6.46236328 6.16042969 -7.69921875 6.1328125 C-8.62154297 6.09800781 -8.62154297 6.09800781 -9.5625 6.0625 C-3.5625 0.0625 -3.5625 0.0625 0 0 Z " fill="#777A7D" transform="translate(255.5625,399.9375)"/>
<path d="M0 0 C0.33 0.99 0.66 1.98 1 3 C8.26 3.33 15.52 3.66 23 4 C23 4.33 23 4.66 23 5 C10.46 5 -2.08 5 -15 5 C-15 4.67 -15 4.34 -15 4 C-10.38 3.67 -5.76 3.34 -1 3 C-0.67 2.01 -0.34 1.02 0 0 Z " fill="#5F6569" transform="translate(381,394)"/>
<path d="M0 0 C1.93719378 -0.05406122 3.87481921 -0.09282025 5.8125 -0.125 C6.89144531 -0.14820313 7.97039062 -0.17140625 9.08203125 -0.1953125 C12 0 12 0 15 2 C15 2.66 15 3.32 15 4 C10.71 4 6.42 4 2 4 C1.34 2.68 0.68 1.36 0 0 Z " fill="#565A5E" transform="translate(402,409)"/>
<path d="M0 0 C3.3 0 6.6 0 10 0 C10 1.65 10 3.3 10 5 C6.7 5 3.4 5 0 5 C0 3.35 0 1.7 0 0 Z " fill="#777A7C" transform="translate(302,400)"/>
<path d="M0 0 C1.65 0 3.3 0 5 0 C5.16759984 2.1249266 5.33405201 4.24994376 5.5 6.375 C5.5928125 7.55835938 5.685625 8.74171875 5.78125 9.9609375 C5.90195454 11.63786843 6 13.31873056 6 15 C4.68 14.67 3.36 14.34 2 14 C2.04125 13.154375 2.0825 12.30875 2.125 11.4375 C1.98830848 7.67848312 1.12210445 4.57670795 0 1 C0 0.67 0 0.34 0 0 Z " fill="#F3F7F7" transform="translate(324,399)"/>
<path d="M0 0 C2.97 0 5.94 0 9 0 C8.67 1.65 8.34 3.3 8 5 C4.7 5 1.4 5 -2 5 C-1.34 3.35 -0.68 1.7 0 0 Z " fill="#777B7D" transform="translate(290,400)"/>
<path d="M0 0 C3.05074215 -0.28780586 5.96183742 -0.45787911 9 0 C11.0625 2.5 11.0625 2.5 12 5 C7.545 5.495 7.545 5.495 3 6 C2.01 4.02 1.02 2.04 0 0 Z " fill="#6C7175" transform="translate(368,401)"/>
<path d="M0 0 C0.80824219 0.11085938 1.61648437 0.22171875 2.44921875 0.3359375 C3.37154297 0.47902344 3.37154297 0.47902344 4.3125 0.625 C3.9825 1.615 3.6525 2.605 3.3125 3.625 C0.43038698 4.58570434 -1.38600044 4.73081883 -4.375 4.6875 C-5.58736328 4.67396484 -5.58736328 4.67396484 -6.82421875 4.66015625 C-7.74654297 4.64275391 -7.74654297 4.64275391 -8.6875 4.625 C-7.05790438 -0.26378686 -4.67497252 -0.67753225 0 0 Z " fill="#4B5155" transform="translate(241.6875,400.375)"/>
<path d="M0 0 C2.97 0 5.94 0 9 0 C9.33 1.65 9.66 3.3 10 5 C6.7 5 3.4 5 0 5 C0 3.35 0 1.7 0 0 Z " fill="#6F7579" transform="translate(329,400)"/>
<path d="M0 0 C2.97 0 5.94 0 9 0 C9.33 1.65 9.66 3.3 10 5 C6.7 5 3.4 5 0 5 C0 3.35 0 1.7 0 0 Z " fill="#72777B" transform="translate(316,400)"/>
<path d="M0 0 C2.97 0 5.94 0 9 0 C9.33 1.65 9.66 3.3 10 5 C7.03 5 4.06 5 1 5 C0.67 3.35 0.34 1.7 0 0 Z " fill="#6B7275" transform="translate(342,400)"/>
<path d="M0 0 C1.23556641 0.01740234 1.23556641 0.01740234 2.49609375 0.03515625 C3.32238281 0.04417969 4.14867187 0.05320312 5 0.0625 C5.63808594 0.07410156 6.27617187 0.08570313 6.93359375 0.09765625 C6.27359375 1.74765625 5.61359375 3.39765625 4.93359375 5.09765625 C2.29359375 5.09765625 -0.34640625 5.09765625 -3.06640625 5.09765625 C-3.06640625 0.14491523 -3.06640625 0.14491523 0 0 Z " fill="#707678" transform="translate(279.06640625,399.90234375)"/>
<path d="M0 0 C0.99 0 1.98 0 3 0 C3 0.66 3 1.32 3 2 C1.04072937 3.7143618 -0.95880212 5.38405168 -3 7 C-2.01 7.66 -1.02 8.32 0 9 C-0.969375 9.28875 -1.93875 9.5775 -2.9375 9.875 C-6.10664203 10.64214682 -6.10664203 10.64214682 -7 13 C-8.65 13 -10.3 13 -12 13 C-8.60271539 8.84387175 -5.27000859 5.29400663 -1 2 C-0.67 1.34 -0.34 0.68 0 0 Z " fill="#E9EDF1" transform="translate(248,400)"/>
<path d="M0 0 C1.77049689 -0.05410687 3.54146849 -0.09284119 5.3125 -0.125 C6.29863281 -0.14820313 7.28476562 -0.17140625 8.30078125 -0.1953125 C11 0 11 0 14 2 C14 2.66 14 3.32 14 4 C4.82713348 4.63019694 4.82713348 4.63019694 1.375 2 C0.92125 1.34 0.4675 0.68 0 0 Z " fill="#636568" transform="translate(386,409)"/>
<path d="M0 0 C3.3 0 6.6 0 10 0 C9.34 1.32 8.68 2.64 8 4 C4.7 4 1.4 4 -2 4 C-1.34 2.68 -0.68 1.36 0 0 Z " fill="#505455" transform="translate(258,409)"/>
<path d="M0 0 C0.99 0.66 1.98 1.32 3 2 C2.67 3.98 2.34 5.96 2 8 C-1.96 8 -5.92 8 -10 8 C-10 7.34 -10 6.68 -10 6 C-6.7 6 -3.4 6 0 6 C-0.33 4.68 -0.66 3.36 -1 2 C-0.67 1.34 -0.34 0.68 0 0 Z " fill="#DADFE0" transform="translate(340,406)"/>
<path d="M0 0 C6.93 0 13.86 0 21 0 C17.58445322 2.27703119 15.91445446 1.99548016 11.94140625 1.87109375 C9.26180026 2.04901527 7.86653374 3.13346626 6 5 C5.7525 4.360625 5.505 3.72125 5.25 3.0625 C4.03378366 0.50980961 4.03378366 0.50980961 0 0 Z " fill="#E2E7EB" transform="translate(255,399)"/>
<path d="M0 0 C2.6015625 -0.29296875 2.6015625 -0.29296875 5.625 -0.1875 C7.12933594 -0.14689453 7.12933594 -0.14689453 8.6640625 -0.10546875 C9.43492187 -0.07066406 10.20578125 -0.03585937 11 0 C10.67 0.99 10.34 1.98 10 3 C6.04 3 2.08 3 -2 3 C-1.34 2.01 -0.68 1.02 0 0 Z " fill="#4B4F53" transform="translate(226,410)"/>
<path d="M0 0 C2.64 0 5.28 0 8 0 C8.66 1.32 9.32 2.64 10 4 C6.7 4 3.4 4 0 4 C0 2.68 0 1.36 0 0 Z " fill="#5E6366" transform="translate(356,401)"/>
<path d="M0 0 C2.75457718 0.37994168 3.82020574 0.8073633 5.75 2.875 C7 5 7 5 7 8 C5.68 8.33 4.36 8.66 3 9 C0 3.375 0 3.375 0 0 Z " fill="#EEF2F2" transform="translate(367,404)"/>
<path d="M0 0 C1.79158489 -0.02696365 3.58328473 -0.04637917 5.375 -0.0625 C6.37273437 -0.07410156 7.37046875 -0.08570313 8.3984375 -0.09765625 C11 0 11 0 13 1 C13 1.66 13 2.32 13 3 C11.20906809 3.08086147 9.41710372 3.13912702 7.625 3.1875 C6.12839844 3.23970703 6.12839844 3.23970703 4.6015625 3.29296875 C3.74304688 3.19628906 2.88453125 3.09960938 2 3 C1.34 2.01 0.68 1.02 0 0 Z " fill="#575B5E" transform="translate(394,401)"/>
<path d="M0 0 C6.625 -0.25 6.625 -0.25 10 2 C10 2.66 10 3.32 10 4 C7.03 4 4.06 4 1 4 C0.67 2.68 0.34 1.36 0 0 Z " fill="#C8C9C9" transform="translate(380,399)"/>
<path d="M0 0 C0.74056641 0.00451172 1.48113281 0.00902344 2.24414062 0.01367188 C4.05862899 0.02537825 5.87307534 0.04331102 7.6875 0.0625 C7.6875 0.3925 7.6875 0.7225 7.6875 1.0625 C3.0675 1.0625 -1.5525 1.0625 -6.3125 1.0625 C-6.6425 2.0525 -6.9725 3.0425 -7.3125 4.0625 C-9.9525 3.7325 -12.5925 3.4025 -15.3125 3.0625 C-11.24841896 -1.00158104 -5.42652619 -0.06304275 0 0 Z " fill="#D0D5DA" transform="translate(412.3125,397.9375)"/>
<path d="M0 0 C1.9453125 -0.29296875 1.9453125 -0.29296875 4.125 -0.1875 C5.40375 -0.125625 6.6825 -0.06375 8 0 C8 0.66 8 1.32 8 2 C7.34 2 6.68 2 6 2 C5.67 2.99 5.34 3.98 5 5 C5 4.34 5 3.68 5 3 C2.69 3 0.38 3 -2 3 C-1.34 2.01 -0.68 1.02 0 0 Z " fill="#808386" transform="translate(265,400)"/>
<path d="M0 0 C1.9375 0.3125 1.9375 0.3125 4 1 C4.33 1.99 4.66 2.98 5 4 C2.03 4 -0.94 4 -4 4 C-4 3.34 -4 2.68 -4 2 C-2.68 2 -1.36 2 0 2 C0 1.34 0 0.68 0 0 Z " fill="#626466" transform="translate(380,409)"/>
<path d="M0 0 C3.96 0 7.92 0 12 0 C9 3 9 3 6.51953125 3.07421875 C5.62621094 2.94660156 4.73289063 2.81898438 3.8125 2.6875 C2.46091797 2.50767578 2.46091797 2.50767578 1.08203125 2.32421875 C0.05142578 2.16373047 0.05142578 2.16373047 -1 2 C-0.67 1.34 -0.34 0.68 0 0 Z " fill="#62686D" transform="translate(228,408)"/>
<path d="M0 0 C0.66 0 1.32 0 2 0 C3.32 2.31 4.64 4.62 6 7 C5.01 7.33 4.02 7.66 3 8 C0.9375 5.6875 0.9375 5.6875 -1 3 C-0.67 2.01 -0.34 1.02 0 0 Z " fill="#EBEFEF" transform="translate(378,399)"/>
<path d="M0 0 C0.99 0.33 1.98 0.66 3 1 C3.33 1.99 3.66 2.98 4 4 C3.34 4 2.68 4 2 4 C1.67 4.66 1.34 5.32 1 6 C0.34 6 -0.32 6 -1 6 C-1.99 6.495 -1.99 6.495 -3 7 C-3 3 -3 3 -1.5 1.25 C-1.005 0.8375 -0.51 0.425 0 0 Z " fill="#E6E9EC" transform="translate(270,405)"/>
<path d="M0 0 C3.3 0 6.6 0 10 0 C9.67 0.99 9.34 1.98 9 3 C6.03 2.67 3.06 2.34 0 2 C0 1.34 0 0.68 0 0 Z " fill="#474D4F" transform="translate(330,406)"/>
<path d="M0 0 C0.66 0.33 1.32 0.66 2 1 C0.54744301 4.82946843 -1.42895561 6.12050295 -5 8 C-4.64950425 4.75791433 -4.43778819 3.38472296 -1.9375 1.1875 C-1.298125 0.795625 -0.65875 0.40375 0 0 Z " fill="#F0F4F6" transform="translate(259,402)"/>
<path d="M0 0 C2.97 0.33 5.94 0.66 9 1 C8.01 2.485 8.01 2.485 7 4 C4.69 3.67 2.38 3.34 0 3 C0 2.01 0 1.02 0 0 Z " fill="#7E8288" transform="translate(237,400)"/>
<path d="M0 0 C2.97 0 5.94 0 9 0 C9.33 0.66 9.66 1.32 10 2 C9.0625 4.125 9.0625 4.125 8 6 C8 4.68 8 3.36 8 2 C5.36 1.67 2.72 1.34 0 1 C0 0.67 0 0.34 0 0 Z " fill="#EBEEF0" transform="translate(344,413)"/>
<path d="M0 0 C2.64 0 5.28 0 8 0 C7.01 0.495 7.01 0.495 6 1 C6 1.66 6 2.32 6 3 C4.68 3.33 3.36 3.66 2 4 C1.34 2.68 0.68 1.36 0 0 Z " fill="#505255" transform="translate(382,403)"/>
</svg>
